<svg width="127" height="45" viewBox="0 0 127 45" fill="none" xmlns="http://www.w3.org/2000/svg">
<path fill-rule="evenodd" clip-rule="evenodd" d="M16.8528 20.827C17.183 20.6786 17.5651 20.6786 17.8953 20.827L30.9728 26.7057C31.5306 26.9563 31.8072 27.5642 31.6192 28.1259L28.3498 37.8929L26.0146 37.177L26.8114 34.7969H23.9129V32.4501H27.5968L28.9554 28.3917L17.3741 23.1856L5.79276 28.3917L7.15125 32.4501H10.8353V34.7969H7.93682L8.73349 37.177L6.39836 37.8929L3.12897 28.1259C2.94098 27.5642 3.21766 26.9563 3.77533 26.7057L16.8528 20.827Z" fill="#212121"/>
<path fill-rule="evenodd" clip-rule="evenodd" d="M6.33984 17.1958C6.33984 16.5478 6.88874 16.0224 7.56586 16.0224H27.1822C27.8593 16.0224 28.4083 16.5478 28.4083 17.1958V26.5833H25.9562V18.3693H8.79188V26.5833H6.33984V17.1958Z" fill="#212121"/>
<path fill-rule="evenodd" clip-rule="evenodd" d="M18.6005 12.5017V17.1955H16.1484V12.5017H18.6005Z" fill="#212121"/>
<path fill-rule="evenodd" clip-rule="evenodd" d="M32.4201 42.6181C32.4428 42.6149 32.5786 42.5931 32.8268 42.34L34.615 43.9458C34.0989 44.4723 33.4902 44.8386 32.7802 44.9395C32.0778 45.0393 31.4527 44.8539 30.9508 44.6053C30.4593 44.3619 30.0136 44.0217 29.6341 43.7052C29.4438 43.5466 29.1999 43.3321 28.9737 43.133C28.809 42.9882 28.6537 42.8516 28.5352 42.7507C27.7725 42.1014 27.3107 41.8523 26.9769 41.8384C26.8036 41.831 26.2674 41.8814 25.3852 43.1733L25.3786 43.1828C24.9284 43.828 24.3892 44.3393 23.717 44.6075C23.0136 44.8882 22.3273 44.8386 21.7364 44.6477C21.1776 44.4672 20.6771 44.1532 20.2611 43.8562C19.9632 43.6436 19.65 43.3953 19.3636 43.1682C19.2556 43.0825 19.1513 42.9999 19.053 42.9232C18.2226 42.2755 17.6851 41.9651 17.2537 41.9358C17.0142 41.9196 16.4522 41.9731 15.5749 43.2372C15.1577 43.8484 14.6304 44.3328 13.9515 44.5687C13.2601 44.8092 12.5942 44.7289 12.0389 44.5457C11.5026 44.3689 11.0051 44.0759 10.5799 43.7953C10.3006 43.6112 9.99871 43.3948 9.71755 43.1934C9.58138 43.0958 9.45008 43.0018 9.32857 42.9165C8.46876 42.3132 7.87389 41.9989 7.39157 41.971C7.09952 41.9541 6.55142 42.0275 5.7689 43.1733L5.76232 43.1828C5.08331 44.156 4.10929 44.9381 2.87462 44.9381C1.635 44.9381 0.666546 44.1506 0 43.172L2.05411 41.8903C2.50772 42.5563 2.82334 42.5912 2.87462 42.5912C2.93076 42.5912 3.25327 42.551 3.7201 41.8839C4.78149 40.3323 6.05492 39.5428 7.53911 39.6284C8.83468 39.7032 9.97287 40.4585 10.7783 41.0238C10.946 41.1415 11.0993 41.2513 11.2448 41.3558C11.4986 41.5378 11.7288 41.703 11.9712 41.8629C12.3419 42.1073 12.6205 42.2553 12.8376 42.3268C13.033 42.3913 13.0987 42.3684 13.1136 42.3631C13.1384 42.3545 13.2902 42.2941 13.5238 41.9512L13.5292 41.9433C14.6367 40.3456 15.9206 39.4927 17.427 39.5947C18.7416 39.6839 19.8493 40.5169 20.6021 41.1039C20.7363 41.2086 20.8613 41.3078 20.9805 41.4023C21.2458 41.6127 21.482 41.8 21.7271 41.9749C22.0764 42.2243 22.3304 42.3626 22.5205 42.424C22.6785 42.475 22.735 42.4567 22.7736 42.4413C22.8431 42.4136 23.0435 42.3024 23.3364 41.8837C24.3955 40.3351 25.6173 39.4322 27.0843 39.4937C28.3922 39.5486 29.4547 40.3925 30.1649 40.9971C30.3775 41.1781 30.5421 41.3239 30.697 41.4613C30.8732 41.6174 31.0368 41.7625 31.2444 41.9355C31.5836 42.2181 31.852 42.4093 32.0779 42.5211C32.2937 42.628 32.3895 42.6224 32.4201 42.6181Z" fill="#212121"/>
<path d="M38.912 25V13.8H44.896C46.4427 13.8 47.584 14.0773 48.32 14.632C49.056 15.176 49.424 15.8747 49.424 16.728C49.424 17.2933 49.264 17.8 48.944 18.248C48.6347 18.6853 48.1813 19.032 47.584 19.288C46.9867 19.544 46.2507 19.672 45.376 19.672L45.696 18.808C46.5707 18.808 47.3227 18.9307 47.952 19.176C48.592 19.4213 49.0827 19.7787 49.424 20.248C49.776 20.7067 49.952 21.2613 49.952 21.912C49.952 22.8827 49.5467 23.64 48.736 24.184C47.936 24.728 46.7627 25 45.216 25H38.912ZM42.624 22.36H44.896C45.312 22.36 45.6213 22.2853 45.824 22.136C46.0373 21.9867 46.144 21.768 46.144 21.48C46.144 21.192 46.0373 20.9733 45.824 20.824C45.6213 20.6747 45.312 20.6 44.896 20.6H42.368V18.104H44.384C44.8107 18.104 45.12 18.0347 45.312 17.896C45.5147 17.7467 45.616 17.5387 45.616 17.272C45.616 16.9947 45.5147 16.7867 45.312 16.648C45.12 16.5093 44.8107 16.44 44.384 16.44H42.624V22.36ZM50.071 25L54.967 13.8H58.679L63.575 25H59.671L56.055 15.592H57.527L53.911 25H50.071ZM52.983 23.048L53.943 20.328H59.095L60.055 23.048H52.983ZM64.1776 25V13.8H67.9536V22.072H73.0096V25H64.1776ZM78.2286 25.256C77.29 25.256 76.3833 25.1493 75.5086 24.936C74.634 24.7227 73.914 24.4453 73.3486 24.104L74.5646 21.352C75.098 21.6613 75.69 21.912 76.3406 22.104C77.002 22.2853 77.642 22.376 78.2606 22.376C78.6233 22.376 78.906 22.3547 79.1086 22.312C79.322 22.2587 79.4766 22.1893 79.5726 22.104C79.6686 22.008 79.7166 21.896 79.7166 21.768C79.7166 21.5653 79.6046 21.4053 79.3806 21.288C79.1566 21.1707 78.858 21.0747 78.4846 21C78.122 20.9147 77.722 20.8293 77.2846 20.744C76.8473 20.648 76.4046 20.5253 75.9566 20.376C75.5193 20.2267 75.114 20.0293 74.7406 19.784C74.378 19.5387 74.0846 19.2187 73.8606 18.824C73.6366 18.4187 73.5246 17.9173 73.5246 17.32C73.5246 16.6267 73.7166 15.9973 74.1006 15.432C74.4953 14.856 75.0766 14.3973 75.8446 14.056C76.6233 13.7147 77.5886 13.544 78.7406 13.544C79.498 13.544 80.2446 13.624 80.9806 13.784C81.7166 13.944 82.378 14.1893 82.9646 14.52L81.8286 17.256C81.274 16.9787 80.7353 16.7707 80.2126 16.632C79.7006 16.4933 79.1993 16.424 78.7086 16.424C78.346 16.424 78.058 16.456 77.8446 16.52C77.6313 16.584 77.4766 16.6693 77.3806 16.776C77.2953 16.8827 77.2526 17 77.2526 17.128C77.2526 17.32 77.3646 17.4747 77.5886 17.592C77.8126 17.6987 78.106 17.7893 78.4686 17.864C78.842 17.9387 79.2473 18.0187 79.6846 18.104C80.1326 18.1893 80.5753 18.3067 81.0126 18.456C81.45 18.6053 81.85 18.8027 82.2126 19.048C82.586 19.2933 82.8846 19.6133 83.1086 20.008C83.3326 20.4027 83.4446 20.8933 83.4446 21.48C83.4446 22.1627 83.2473 22.792 82.8526 23.368C82.4686 23.9333 81.8926 24.392 81.1246 24.744C80.3566 25.0853 79.3913 25.256 78.2286 25.256ZM83.3522 25L88.2483 13.8H91.9603L96.8563 25H92.9523L89.3363 15.592H90.8083L87.1923 25H83.3522ZM86.2643 23.048L87.2243 20.328H92.3763L93.3363 23.048H86.2643ZM101.635 25.256C100.696 25.256 99.7895 25.1493 98.9149 24.936C98.0402 24.7227 97.3202 24.4453 96.7549 24.104L97.9709 21.352C98.5042 21.6613 99.0962 21.912 99.7469 22.104C100.408 22.2853 101.048 22.376 101.667 22.376C102.03 22.376 102.312 22.3547 102.515 22.312C102.728 22.2587 102.883 22.1893 102.979 22.104C103.075 22.008 103.123 21.896 103.123 21.768C103.123 21.5653 103.011 21.4053 102.787 21.288C102.563 21.1707 102.264 21.0747 101.891 21C101.528 20.9147 101.128 20.8293 100.691 20.744C100.254 20.648 99.8109 20.5253 99.3629 20.376C98.9255 20.2267 98.5202 20.0293 98.1469 19.784C97.7842 19.5387 97.4909 19.2187 97.2669 18.824C97.0429 18.4187 96.9309 17.9173 96.9309 17.32C96.9309 16.6267 97.1229 15.9973 97.5069 15.432C97.9015 14.856 98.4829 14.3973 99.2509 14.056C100.03 13.7147 100.995 13.544 102.147 13.544C102.904 13.544 103.651 13.624 104.387 13.784C105.123 13.944 105.784 14.1893 106.371 14.52L105.235 17.256C104.68 16.9787 104.142 16.7707 103.619 16.632C103.107 16.4933 102.606 16.424 102.115 16.424C101.752 16.424 101.464 16.456 101.251 16.52C101.038 16.584 100.883 16.6693 100.787 16.776C100.702 16.8827 100.659 17 100.659 17.128C100.659 17.32 100.771 17.4747 100.995 17.592C101.219 17.6987 101.512 17.7893 101.875 17.864C102.248 17.9387 102.654 18.0187 103.091 18.104C103.539 18.1893 103.982 18.3067 104.419 18.456C104.856 18.6053 105.256 18.8027 105.619 19.048C105.992 19.2933 106.291 19.6133 106.515 20.008C106.739 20.4027 106.851 20.8933 106.851 21.48C106.851 22.1627 106.654 22.792 106.259 23.368C105.875 23.9333 105.299 24.392 104.531 24.744C103.763 25.0853 102.798 25.256 101.635 25.256Z" fill="#212121"/>
<path d="M42.344 38.064C41.9173 38.064 41.5227 37.9947 41.16 37.856C40.8027 37.712 40.4907 37.512 40.224 37.256C39.9627 36.9947 39.7573 36.6907 39.608 36.344C39.4587 35.9973 39.384 35.616 39.384 35.2C39.384 34.784 39.4587 34.4027 39.608 34.056C39.7573 33.7093 39.9653 33.408 40.232 33.152C40.4987 32.8907 40.8107 32.6907 41.168 32.552C41.5307 32.408 41.9253 32.336 42.352 32.336C42.784 32.336 43.1813 32.4107 43.544 32.56C43.912 32.704 44.224 32.92 44.48 33.208L43.96 33.712C43.7467 33.488 43.5067 33.3227 43.24 33.216C42.9733 33.104 42.688 33.048 42.384 33.048C42.0693 33.048 41.776 33.1013 41.504 33.208C41.2373 33.3147 41.0053 33.464 40.808 33.656C40.6107 33.848 40.456 34.0773 40.344 34.344C40.2373 34.6053 40.184 34.8907 40.184 35.2C40.184 35.5093 40.2373 35.7973 40.344 36.064C40.456 36.3253 40.6107 36.552 40.808 36.744C41.0053 36.936 41.2373 37.0853 41.504 37.192C41.776 37.2987 42.0693 37.352 42.384 37.352C42.688 37.352 42.9733 37.2987 43.24 37.192C43.5067 37.08 43.7467 36.9093 43.96 36.68L44.48 37.184C44.224 37.472 43.912 37.6907 43.544 37.84C43.1813 37.9893 42.7813 38.064 42.344 38.064ZM46.3493 34.816H49.2293V35.496H46.3493V34.816ZM46.4213 37.304H49.6853V38H45.6213V32.4H49.5733V33.096H46.4213V37.304ZM50.1326 38L52.6686 32.4H53.4606L56.0046 38H55.1646L52.9006 32.848H53.2206L50.9566 38H50.1326ZM51.2126 36.6L51.4286 35.96H54.5806L54.8126 36.6H51.2126ZM58.472 38.064C58.0453 38.064 57.6373 38 57.248 37.872C56.8587 37.7387 56.552 37.568 56.328 37.36L56.624 36.736C56.8373 36.9227 57.1093 37.0773 57.44 37.2C57.7707 37.3227 58.1147 37.384 58.472 37.384C58.7973 37.384 59.0613 37.3467 59.264 37.272C59.4667 37.1973 59.616 37.096 59.712 36.968C59.808 36.8347 59.856 36.6853 59.856 36.52C59.856 36.328 59.792 36.1733 59.664 36.056C59.5413 35.9387 59.3787 35.8453 59.176 35.776C58.9787 35.7013 58.76 35.6373 58.52 35.584C58.28 35.5307 58.0373 35.4693 57.792 35.4C57.552 35.3253 57.3307 35.232 57.128 35.12C56.9307 35.008 56.7707 34.8587 56.648 34.672C56.5253 34.48 56.464 34.2347 56.464 33.936C56.464 33.648 56.5387 33.384 56.688 33.144C56.8427 32.8987 57.0773 32.704 57.392 32.56C57.712 32.4107 58.1173 32.336 58.608 32.336C58.9333 32.336 59.256 32.3787 59.576 32.464C59.896 32.5493 60.1733 32.672 60.408 32.832L60.144 33.472C59.904 33.312 59.6507 33.1973 59.384 33.128C59.1173 33.0533 58.8587 33.016 58.608 33.016C58.2933 33.016 58.0347 33.056 57.832 33.136C57.6293 33.216 57.48 33.3227 57.384 33.456C57.2933 33.5893 57.248 33.7387 57.248 33.904C57.248 34.1013 57.3093 34.2587 57.432 34.376C57.56 34.4933 57.7227 34.5867 57.92 34.656C58.1227 34.7253 58.344 34.7893 58.584 34.848C58.824 34.9013 59.064 34.9627 59.304 35.032C59.5493 35.1013 59.7707 35.192 59.968 35.304C60.1707 35.416 60.3333 35.5653 60.456 35.752C60.5787 35.9387 60.64 36.1787 60.64 36.472C60.64 36.7547 60.5627 37.0187 60.408 37.264C60.2533 37.504 60.0133 37.6987 59.688 37.848C59.368 37.992 58.9627 38.064 58.472 38.064ZM60.9607 38L63.4968 32.4H64.2888L66.8328 38H65.9928L63.7288 32.848H64.0488L61.7848 38H60.9607ZM62.0408 36.6L62.2568 35.96H65.4088L65.6408 36.6H62.0408ZM67.1435 36.136V35.472H69.2955V36.136H67.1435ZM73.1487 38.064C72.722 38.064 72.3274 37.9947 71.9647 37.856C71.6074 37.712 71.2954 37.512 71.0287 37.256C70.7674 36.9947 70.562 36.6907 70.4127 36.344C70.2634 35.9973 70.1887 35.616 70.1887 35.2C70.1887 34.784 70.2634 34.4027 70.4127 34.056C70.562 33.7093 70.77 33.408 71.0367 33.152C71.3034 32.8907 71.6154 32.6907 71.9727 32.552C72.3354 32.408 72.73 32.336 73.1567 32.336C73.5887 32.336 73.986 32.4107 74.3487 32.56C74.7167 32.704 75.0287 32.92 75.2847 33.208L74.7647 33.712C74.5514 33.488 74.3114 33.3227 74.0447 33.216C73.778 33.104 73.4927 33.048 73.1887 33.048C72.874 33.048 72.5807 33.1013 72.3087 33.208C72.042 33.3147 71.81 33.464 71.6127 33.656C71.4154 33.848 71.2607 34.0773 71.1487 34.344C71.042 34.6053 70.9887 34.8907 70.9887 35.2C70.9887 35.5093 71.042 35.7973 71.1487 36.064C71.2607 36.3253 71.4154 36.552 71.6127 36.744C71.81 36.936 72.042 37.0853 72.3087 37.192C72.5807 37.2987 72.874 37.352 73.1887 37.352C73.4927 37.352 73.778 37.2987 74.0447 37.192C74.3114 37.08 74.5514 36.9093 74.7647 36.68L75.2847 37.184C75.0287 37.472 74.7167 37.6907 74.3487 37.84C73.986 37.9893 73.586 38.064 73.1487 38.064ZM75.4451 38L77.9811 32.4H78.7731L81.3171 38H80.4771L78.2131 32.848H78.5331L76.2691 38H75.4451ZM76.5251 36.6L76.7411 35.96H79.8931L80.1251 36.6H76.5251ZM82.1525 38V32.4H84.3365C84.8272 32.4 85.2458 32.4773 85.5925 32.632C85.9392 32.7867 86.2058 33.0107 86.3925 33.304C86.5792 33.5973 86.6725 33.9467 86.6725 34.352C86.6725 34.7573 86.5792 35.1067 86.3925 35.4C86.2058 35.688 85.9392 35.9093 85.5925 36.064C85.2458 36.2187 84.8272 36.296 84.3365 36.296H82.5925L82.9525 35.928V38H82.1525ZM85.8965 38L84.4725 35.968H85.3285L86.7685 38H85.8965ZM82.9525 36.008L82.5925 35.616H84.3125C84.8245 35.616 85.2112 35.5067 85.4725 35.288C85.7392 35.064 85.8725 34.752 85.8725 34.352C85.8725 33.952 85.7392 33.6427 85.4725 33.424C85.2112 33.2053 84.8245 33.096 84.3125 33.096H82.5925L82.9525 32.696V36.008ZM88.693 34.816H91.573V35.496H88.693V34.816ZM88.765 37.304H92.029V38H87.965V32.4H91.917V33.096H88.765V37.304ZM93.3244 38V32.4H94.1244V38H93.3244ZM95.8009 38V32.4H97.9849C98.4756 32.4 98.8943 32.4773 99.2409 32.632C99.5876 32.7867 99.8543 33.0107 100.041 33.304C100.228 33.5973 100.321 33.9467 100.321 34.352C100.321 34.7573 100.228 35.1067 100.041 35.4C99.8543 35.688 99.5876 35.9093 99.2409 36.064C98.8943 36.2187 98.4756 36.296 97.9849 36.296H96.2409L96.6009 35.928V38H95.8009ZM99.5449 38L98.1209 35.968H98.9769L100.417 38H99.5449ZM96.6009 36.008L96.2409 35.616H97.9609C98.4729 35.616 98.8596 35.5067 99.1209 35.288C99.3876 35.064 99.5209 34.752 99.5209 34.352C99.5209 33.952 99.3876 33.6427 99.1209 33.424C98.8596 33.2053 98.4729 33.096 97.9609 33.096H96.2409L96.6009 32.696V36.008ZM104.141 38.064C103.715 38.064 103.317 37.992 102.949 37.848C102.587 37.704 102.272 37.504 102.005 37.248C101.739 36.9867 101.531 36.6827 101.381 36.336C101.232 35.9893 101.157 35.6107 101.157 35.2C101.157 34.7893 101.232 34.4107 101.381 34.064C101.531 33.7173 101.739 33.416 102.005 33.16C102.272 32.8987 102.587 32.696 102.949 32.552C103.312 32.408 103.709 32.336 104.141 32.336C104.568 32.336 104.96 32.408 105.317 32.552C105.68 32.6907 105.995 32.8907 106.261 33.152C106.533 33.408 106.741 33.7093 106.885 34.056C107.035 34.4027 107.109 34.784 107.109 35.2C107.109 35.616 107.035 35.9973 106.885 36.344C106.741 36.6907 106.533 36.9947 106.261 37.256C105.995 37.512 105.68 37.712 105.317 37.856C104.96 37.9947 104.568 38.064 104.141 38.064ZM104.141 37.352C104.451 37.352 104.736 37.2987 104.997 37.192C105.264 37.0853 105.493 36.936 105.685 36.744C105.883 36.5467 106.035 36.3173 106.141 36.056C106.253 35.7947 106.309 35.5093 106.309 35.2C106.309 34.8907 106.253 34.6053 106.141 34.344C106.035 34.0827 105.883 33.856 105.685 33.664C105.493 33.4667 105.264 33.3147 104.997 33.208C104.736 33.1013 104.451 33.048 104.141 33.048C103.827 33.048 103.536 33.1013 103.269 33.208C103.008 33.3147 102.779 33.4667 102.581 33.664C102.384 33.856 102.229 34.0827 102.117 34.344C102.011 34.6053 101.957 34.8907 101.957 35.2C101.957 35.5093 102.011 35.7947 102.117 36.056C102.229 36.3173 102.384 36.5467 102.581 36.744C102.779 36.936 103.008 37.0853 103.269 37.192C103.536 37.2987 103.827 37.352 104.141 37.352Z" fill="#212121"/>
</svg>
