<svg width="65" height="64" viewBox="0 0 65 64" fill="none" xmlns="http://www.w3.org/2000/svg">
<rect x="0.5" width="64" height="64" rx="32" fill="#FFF1E9"/>
<path fill-rule="evenodd" clip-rule="evenodd" d="M27.6556 17.8049C28.2311 17.6667 28.8426 17.6667 30.0655 17.6667H34.9332C36.1561 17.6667 36.7676 17.6667 37.3431 17.8049C37.8532 17.9274 38.341 18.1294 38.7883 18.4035C39.2929 18.7128 39.7253 19.1451 40.59 20.0099L44.4895 23.9094L44.4896 23.9094C45.3543 24.7742 45.7867 25.2065 46.0959 25.7111C46.37 26.1585 46.572 26.6462 46.6945 27.1564C46.8327 27.7318 46.8327 28.3433 46.8327 29.5662V34.4339C46.8327 35.6569 46.8327 36.2684 46.6945 36.8438C46.572 37.354 46.37 37.8417 46.0959 38.2891C45.7867 38.7936 45.3543 39.226 44.4895 40.0908L40.59 43.9903L40.59 43.9903C39.7253 44.855 39.2929 45.2874 38.7883 45.5966C38.341 45.8708 37.8532 46.0728 37.3431 46.1953C36.7676 46.3334 36.1561 46.3334 34.9332 46.3334H30.0655C28.8426 46.3334 28.2311 46.3334 27.6556 46.1953C27.1455 46.0728 26.6577 45.8708 26.2104 45.5966C25.7058 45.2874 25.2734 44.855 24.4087 43.9903L20.5092 40.0908C19.6444 39.226 19.212 38.7936 18.9028 38.2891C18.6287 37.8417 18.4266 37.354 18.3042 36.8438C18.166 36.2684 18.166 35.6569 18.166 34.4339V29.5662C18.166 28.3433 18.166 27.7318 18.3042 27.1564C18.4266 26.6462 18.6287 26.1585 18.9028 25.7111C19.212 25.2065 19.6444 24.7741 20.5092 23.9094L24.4087 20.0099C25.2734 19.1451 25.7058 18.7128 26.2104 18.4035C26.6577 18.1294 27.1455 17.9274 27.6556 17.8049ZM37.0296 27.4698C36.7367 27.1769 36.262 27.1769 35.9691 27.4698L32.4993 30.9395L29.0296 27.4698C28.7367 27.1769 28.262 27.1769 27.9691 27.4698C27.6762 27.7627 27.6762 28.2375 27.9691 28.5304L31.4388 32.0001L27.9691 35.4698C27.6762 35.7627 27.6762 36.2375 27.9691 36.5304C28.262 36.8232 28.7367 36.8232 29.0296 36.5304L32.4993 33.0606L35.9691 36.5304L36.0257 36.5821C36.3203 36.8224 36.755 36.805 37.0296 36.5304C37.3042 36.2558 37.3217 35.821 37.0814 35.5264L37.0296 35.4698L33.5599 32.0001L37.0296 28.5304C37.3225 28.2375 37.3225 27.7627 37.0296 27.4698Z" fill="#E01507"/>
</svg>
