<svg width="465" height="397" viewBox="0 0 465 397" fill="none" xmlns="http://www.w3.org/2000/svg">
<g filter="url(#filter0_d_766_2471)">
<path d="M204.136 52.364C207.651 48.8492 213.349 48.8492 216.864 52.364L360.636 196.136C364.151 199.651 364.151 205.349 360.636 208.864L216.864 352.636C213.349 356.151 207.651 356.151 204.136 352.636L60.364 208.864C56.8492 205.349 56.8492 199.651 60.364 196.136L204.136 52.364Z" fill="#0177FB"/>
</g>
<g filter="url(#filter1_d_766_2471)">
<path d="M280.136 44.364C283.651 40.8492 289.349 40.8492 292.864 44.364L436.636 188.136C440.151 191.651 440.151 197.349 436.636 200.864L292.864 344.636C289.349 348.151 283.651 348.151 280.136 344.636L136.364 200.864C132.849 197.349 132.849 191.651 136.364 188.136L280.136 44.364Z" fill="#0177FB"/>
</g>
<defs>
<filter id="filter0_d_766_2471" x="0.527538" y="8.52803" width="387.945" height="387.944" filterUnits="userSpaceOnUse" color-interpolation-filters="sRGB">
<feFlood flood-opacity="0" result="BackgroundImageFix"/>
<feColorMatrix in="SourceAlpha" type="matrix" values="0 0 0 0 0 0 0 0 0 0 0 0 0 0 0 0 0 0 127 0" result="hardAlpha"/>
<feOffset dx="-16"/>
<feGaussianBlur stdDeviation="20.6"/>
<feComposite in2="hardAlpha" operator="out"/>
<feColorMatrix type="matrix" values="0 0 0 0 0 0 0 0 0 0.360784 0 0 0 0 0.843137 0 0 0 0.2 0"/>
<feBlend mode="normal" in2="BackgroundImageFix" result="effect1_dropShadow_766_2471"/>
<feBlend mode="normal" in="SourceGraphic" in2="effect1_dropShadow_766_2471" result="shape"/>
</filter>
<filter id="filter1_d_766_2471" x="76.5275" y="0.528027" width="387.945" height="387.944" filterUnits="userSpaceOnUse" color-interpolation-filters="sRGB">
<feFlood flood-opacity="0" result="BackgroundImageFix"/>
<feColorMatrix in="SourceAlpha" type="matrix" values="0 0 0 0 0 0 0 0 0 0 0 0 0 0 0 0 0 0 127 0" result="hardAlpha"/>
<feOffset dx="-16"/>
<feGaussianBlur stdDeviation="20.6"/>
<feComposite in2="hardAlpha" operator="out"/>
<feColorMatrix type="matrix" values="0 0 0 0 0 0 0 0 0 0.360784 0 0 0 0 0.843137 0 0 0 0.2 0"/>
<feBlend mode="normal" in2="BackgroundImageFix" result="effect1_dropShadow_766_2471"/>
<feBlend mode="normal" in="SourceGraphic" in2="effect1_dropShadow_766_2471" result="shape"/>
</filter>
</defs>
</svg>
