<svg width="52" height="44" viewBox="0 0 52 44" fill="none" xmlns="http://www.w3.org/2000/svg">
<path fill-rule="evenodd" clip-rule="evenodd" d="M25.3169 11.1733C25.813 10.9741 26.3869 10.9741 26.8829 11.1733L46.5285 19.0631C47.3664 19.3994 47.7819 20.2152 47.4995 20.9691L42.5881 34.0773L39.0802 33.1165L40.2771 29.9222H35.9229V26.7725H41.457L43.498 21.3258L26.1001 14.3387L8.70207 21.3258L10.7429 26.7725H16.2772V29.9222H11.923L13.1197 33.1165L9.61183 34.0773L4.70043 20.9691C4.41802 20.2152 4.83365 19.3994 5.67141 19.0631L25.3169 11.1733Z" fill="white"/>
<path fill-rule="evenodd" clip-rule="evenodd" d="M9.52344 6.29996C9.52344 5.43019 10.348 4.7251 11.3652 4.7251H40.8337C41.8508 4.7251 42.6755 5.43019 42.6755 6.29996V18.8988H38.9919V7.87481H13.207V18.8988H9.52344V6.29996Z" fill="white"/>
<path fill-rule="evenodd" clip-rule="evenodd" d="M27.9414 0V6.29943H24.2578V0H27.9414Z" fill="white"/>
<path fill-rule="evenodd" clip-rule="evenodd" d="M48.7027 40.419C48.7369 40.4145 48.9409 40.3854 49.3137 40.0456L52 42.2009C51.2247 42.9074 50.3102 43.399 49.2437 43.5344C48.1885 43.6684 47.2494 43.4196 46.4955 43.0859C45.7571 42.7592 45.0877 42.3027 44.5175 41.8779C44.2316 41.665 43.8652 41.3771 43.5254 41.11C43.2781 40.9156 43.0448 40.7323 42.8668 40.5968C41.7209 39.7254 41.0272 39.3911 40.5257 39.3724C40.2654 39.3625 39.46 39.4302 38.1346 41.164L38.1248 41.1768C37.4485 42.0427 36.6384 42.729 35.6286 43.0889C34.5719 43.4656 33.541 43.399 32.6533 43.1428C31.8139 42.9005 31.062 42.4791 30.437 42.0805C29.9896 41.7952 29.519 41.4619 29.0888 41.1573C28.9265 41.0422 28.7698 40.9313 28.6222 40.8284C27.3747 39.9591 26.5673 39.5425 25.9192 39.5032C25.5595 39.4814 24.7152 39.5532 23.3972 41.2499C22.7705 42.07 21.9783 42.7201 20.9586 43.0368C19.9199 43.3595 18.9195 43.2518 18.0853 43.0059C17.2797 42.7686 16.5323 42.3754 15.8935 41.9989C15.474 41.7517 15.0205 41.4613 14.5981 41.1911C14.3935 41.06 14.1963 40.9338 14.0138 40.8194C12.7221 40.0097 11.8285 39.5879 11.1039 39.5505C10.6652 39.5278 9.84181 39.6263 8.66627 41.164L8.65639 41.1768C7.63634 42.4829 6.17314 43.5326 4.31837 43.5326C2.45617 43.5326 1.00131 42.4757 0 41.1623L3.08576 39.4421C3.76719 40.336 4.24134 40.3828 4.31837 40.3828C4.4027 40.3828 4.88719 40.3289 5.58849 39.4335C7.18295 37.3511 9.09594 36.2916 11.3255 36.4064C13.2718 36.5068 14.9816 37.5206 16.1916 38.2793C16.4436 38.4372 16.6738 38.5846 16.8924 38.7248C17.2736 38.969 17.6195 39.1908 17.9837 39.4054C18.5405 39.7334 18.959 39.932 19.2852 40.028C19.5788 40.1145 19.6774 40.0838 19.6998 40.0767C19.737 40.0651 19.9651 39.9841 20.316 39.5238L20.3241 39.5133C21.9879 37.369 23.9166 36.2244 26.1795 36.3613C28.1544 36.481 29.8184 37.5989 30.9492 38.3868C31.1509 38.5272 31.3387 38.6604 31.5177 38.7872C31.9163 39.0696 32.2711 39.321 32.6393 39.5557C33.164 39.8904 33.5457 40.0761 33.8313 40.1584C34.0685 40.2268 34.1534 40.2023 34.2114 40.1817C34.3158 40.1445 34.6168 39.9952 35.0569 39.4333C36.6479 37.3549 38.4833 36.1431 40.6871 36.2256C42.6519 36.2993 44.2481 37.432 45.3148 38.2433C45.6343 38.4863 45.8816 38.682 46.1142 38.8664C46.3789 39.0759 46.6247 39.2706 46.9366 39.5028C47.4461 39.882 47.8494 40.1386 48.1888 40.2888C48.5129 40.4322 48.6568 40.4246 48.7027 40.419Z" fill="white"/>
</svg>