<svg width="65" height="64" viewBox="0 0 65 64" fill="none" xmlns="http://www.w3.org/2000/svg">
<rect x="0.5" width="64" height="64" rx="32" fill="#FFF1E9"/>
<path fill-rule="evenodd" clip-rule="evenodd" d="M23.5816 30.3487C27.4728 23.4496 29.4184 20 32.4993 20C35.5803 20 37.5259 23.4495 41.4171 30.3486L41.9019 31.2084C45.1355 36.9415 46.7522 39.808 45.291 41.904C43.8298 44 40.2146 44 32.9842 44H32.0145C24.7841 44 21.1689 44 19.7077 41.904C18.2465 39.808 19.8632 36.9415 23.0968 31.2084L23.5816 30.3487ZM32.4993 25.6667C33.0516 25.6667 33.4993 26.1144 33.4993 26.6667V33.3333C33.4993 33.8856 33.0516 34.3333 32.4993 34.3333C31.9471 34.3333 31.4993 33.8856 31.4993 33.3333V26.6667C31.4993 26.1144 31.9471 25.6667 32.4993 25.6667ZM32.4993 38.6667C33.2357 38.6667 33.8327 38.0697 33.8327 37.3333C33.8327 36.597 33.2357 36 32.4993 36C31.763 36 31.166 36.597 31.166 37.3333C31.166 38.0697 31.763 38.6667 32.4993 38.6667Z" fill="#FFA826"/>
</svg>
