<svg width="20" height="20" viewBox="0 0 20 20" fill="none" xmlns="http://www.w3.org/2000/svg">
<path d="M9.87662 19.4504C8.26034 19.292 6.58109 18.6182 5.21876 17.5803L4.56353 17.0811L5.15348 16.3867C5.47796 16.0048 5.76066 15.6922 5.78171 15.6922C5.80271 15.6922 6.13623 15.917 6.52276 16.1917C7.91582 17.1817 9.06879 17.5545 10.7603 17.5619C12.1249 17.5619 12.878 17.3864 14.1392 16.748C14.8586 16.3839 15.1977 16.1195 15.9634 15.325C16.726 14.5339 16.9856 14.1764 17.3349 13.4361C17.9326 12.1693 18.1184 11.3539 18.1184 9.99805C18.1184 8.65132 17.9348 7.83991 17.3407 6.56208C16.9908 5.80958 16.7525 5.48198 15.97 4.67849C14.9418 3.62267 14.1265 3.1051 12.8614 2.70482C8.97037 1.47401 4.75554 3.9253 3.64553 8.06485C3.32038 9.27741 3.3067 9.24589 4.15858 9.24589C4.55885 9.24589 4.88633 9.27861 4.88633 9.31651C4.88633 9.39573 2.46165 13.7632 2.43703 13.7275C2.32603 13.5673 0 9.34372 0 9.30255C0 9.27155 0.346083 9.24572 0.769066 9.24572H1.53811L1.65678 8.52042C2.28671 4.67005 4.96604 1.66571 8.59774 0.737522C9.75442 0.441962 11.7447 0.418711 12.8218 0.687573C18.1605 2.02414 21.2341 7.6551 19.5277 12.9731C18.8097 15.211 17.2536 17.1342 15.1767 18.3509C14.3943 18.809 12.8792 19.3166 12.0599 19.3946C11.6882 19.4308 11.2204 19.4739 11.0202 19.4928C10.8201 19.5118 10.3055 19.4925 9.87662 19.4504ZM9.87662 15.0022C9.87662 14.4252 9.87329 14.4184 9.49059 14.288C8.88902 14.0828 8.05521 13.1521 7.85791 12.4655C7.57151 11.4688 7.53966 11.5022 8.77932 11.5022C9.86156 11.5022 9.86574 11.5031 10.0019 11.7976C10.2019 12.2301 10.8174 12.372 11.2042 12.0751C11.3852 11.9355 11.4997 11.7364 11.5202 11.5244C11.5577 11.1372 11.4085 11.0346 10.2405 10.6424C9.84024 10.508 9.34901 10.3122 9.14887 10.2071C8.66341 9.95241 8.05299 9.28533 7.85439 8.79273C7.65347 8.29427 7.64677 7.42034 7.83939 6.94187C8.05061 6.41947 8.73194 5.75928 9.28527 5.54088L9.76219 5.35263L9.79302 4.74756L9.82386 4.14249L10.7335 4.11148L11.6432 4.08048V4.72431V5.36813L12.0851 5.57103C12.3281 5.68298 12.6799 5.90758 12.8669 6.07086C13.3091 6.45702 13.7861 7.28927 13.6474 7.43274C13.5907 7.4913 13.1159 7.6768 12.5921 7.84491C11.6987 8.13203 11.6338 8.13926 11.5416 7.96031C11.3177 7.52799 10.2894 7.40932 9.99062 7.78135C9.80621 8.01094 10.1607 8.24898 11.211 8.60086C12.6862 9.09501 13.4396 9.70835 13.7078 10.6336C14.1005 11.9883 13.5372 13.3789 12.3045 14.0978L11.7472 14.4228V15.0034V15.5842H10.8115H9.87584L9.87662 15.0022Z" fill="currentColor"/>
</svg>
