<svg width="17" height="16" viewBox="0 0 17 16" fill="none" xmlns="http://www.w3.org/2000/svg">
<path d="M11.8333 9.33333C12.0101 9.33333 12.1797 9.2631 12.3047 9.13807C12.4298 9.01305 12.5 8.84348 12.5 8.66667C12.5 8.48986 12.4298 8.32029 12.3047 8.19526C12.1797 8.07024 12.0101 8 11.8333 8C11.6565 8 11.487 8.07024 11.3619 8.19526C11.2369 8.32029 11.1667 8.48986 11.1667 8.66667C11.1667 8.84348 11.2369 9.01305 11.3619 9.13807C11.487 9.2631 11.6565 9.33333 11.8333 9.33333ZM11.8333 12C12.0101 12 12.1797 11.9298 12.3047 11.8047C12.4298 11.6797 12.5 11.5101 12.5 11.3333C12.5 11.1565 12.4298 10.987 12.3047 10.8619C12.1797 10.7369 12.0101 10.6667 11.8333 10.6667C11.6565 10.6667 11.487 10.7369 11.3619 10.8619C11.2369 10.987 11.1667 11.1565 11.1667 11.3333C11.1667 11.5101 11.2369 11.6797 11.3619 11.8047C11.487 11.9298 11.6565 12 11.8333 12ZM9.16667 8.66667C9.16667 8.84348 9.09643 9.01305 8.9714 9.13807C8.84638 9.2631 8.67681 9.33333 8.5 9.33333C8.32319 9.33333 8.15362 9.2631 8.0286 9.13807C7.90357 9.01305 7.83333 8.84348 7.83333 8.66667C7.83333 8.48986 7.90357 8.32029 8.0286 8.19526C8.15362 8.07024 8.32319 8 8.5 8C8.67681 8 8.84638 8.07024 8.9714 8.19526C9.09643 8.32029 9.16667 8.48986 9.16667 8.66667ZM9.16667 11.3333C9.16667 11.5101 9.09643 11.6797 8.9714 11.8047C8.84638 11.9298 8.67681 12 8.5 12C8.32319 12 8.15362 11.9298 8.0286 11.8047C7.90357 11.6797 7.83333 11.5101 7.83333 11.3333C7.83333 11.1565 7.90357 10.987 8.0286 10.8619C8.15362 10.7369 8.32319 10.6667 8.5 10.6667C8.67681 10.6667 8.84638 10.7369 8.9714 10.8619C9.09643 10.987 9.16667 11.1565 9.16667 11.3333ZM5.16667 9.33333C5.34348 9.33333 5.51305 9.2631 5.63807 9.13807C5.7631 9.01305 5.83333 8.84348 5.83333 8.66667C5.83333 8.48986 5.7631 8.32029 5.63807 8.19526C5.51305 8.07024 5.34348 8 5.16667 8C4.98986 8 4.82029 8.07024 4.69526 8.19526C4.57024 8.32029 4.5 8.48986 4.5 8.66667C4.5 8.84348 4.57024 9.01305 4.69526 9.13807C4.82029 9.2631 4.98986 9.33333 5.16667 9.33333ZM5.16667 12C5.34348 12 5.51305 11.9298 5.63807 11.8047C5.7631 11.6797 5.83333 11.5101 5.83333 11.3333C5.83333 11.1565 5.7631 10.987 5.63807 10.8619C5.51305 10.7369 5.34348 10.6667 5.16667 10.6667C4.98986 10.6667 4.82029 10.7369 4.69526 10.8619C4.57024 10.987 4.5 11.1565 4.5 11.3333C4.5 11.5101 4.57024 11.6797 4.69526 11.8047C4.82029 11.9298 4.98986 12 5.16667 12Z" fill="currentColor"/>
<path fill-rule="evenodd" clip-rule="evenodd" d="M5.16665 1.16663C5.29926 1.16663 5.42644 1.2193 5.5202 1.31307C5.61397 1.40684 5.66665 1.53402 5.66665 1.66663V2.17529C6.10798 2.16663 6.59398 2.16663 7.12865 2.16663H9.87065C10.406 2.16663 10.892 2.16663 11.3333 2.17529V1.66663C11.3333 1.53402 11.386 1.40684 11.4798 1.31307C11.5735 1.2193 11.7007 1.16663 11.8333 1.16663C11.9659 1.16663 12.0931 1.2193 12.1869 1.31307C12.2806 1.40684 12.3333 1.53402 12.3333 1.66663V2.21796C12.5067 2.23129 12.6709 2.24818 12.826 2.26863C13.6073 2.37396 14.24 2.59529 14.7393 3.09396C15.238 3.59329 15.4593 4.22596 15.5647 5.00729C15.6667 5.76729 15.6667 6.73729 15.6667 7.96263V9.37063C15.6667 10.596 15.6667 11.5666 15.5647 12.326C15.4593 13.1073 15.238 13.74 14.7393 14.2393C14.24 14.738 13.6073 14.9593 12.826 15.0646C12.066 15.1666 11.096 15.1666 9.87065 15.1666H7.12998C5.90465 15.1666 4.93398 15.1666 4.17465 15.0646C3.39332 14.9593 2.76065 14.738 2.26132 14.2393C1.76265 13.74 1.54132 13.1073 1.43598 12.326C1.33398 11.566 1.33398 10.596 1.33398 9.37063V7.96263C1.33398 6.73729 1.33398 5.76663 1.43598 5.00729C1.54132 4.22596 1.76265 3.59329 2.26132 3.09396C2.76065 2.59529 3.39332 2.37396 4.17465 2.26863C4.33021 2.24818 4.49443 2.23129 4.66732 2.21796V1.66663C4.66732 1.53413 4.7199 1.40706 4.81353 1.31331C4.90715 1.21956 5.03416 1.1668 5.16665 1.16663ZM4.30665 3.25996C3.63665 3.34996 3.24998 3.51929 2.96798 3.80129C2.68598 4.08329 2.51665 4.46996 2.42665 5.13996C2.41154 5.25329 2.39865 5.37307 2.38798 5.49929H14.612C14.6013 5.37307 14.5884 5.25307 14.5733 5.13929C14.4833 4.46929 14.314 4.08263 14.032 3.80063C13.75 3.51863 13.3633 3.34929 12.6927 3.25929C12.008 3.16729 11.1047 3.16596 9.83332 3.16596H7.16665C5.89532 3.16596 4.99265 3.16796 4.30665 3.25996ZM2.33332 7.99996C2.33332 7.43063 2.33332 6.93529 2.34198 6.49996H14.658C14.6667 6.93529 14.6667 7.43063 14.6667 7.99996V9.33329C14.6667 10.6046 14.6653 11.508 14.5733 12.1933C14.4833 12.8633 14.314 13.25 14.032 13.532C13.75 13.814 13.3633 13.9833 12.6927 14.0733C12.008 14.1653 11.1047 14.1666 9.83332 14.1666H7.16665C5.89532 14.1666 4.99265 14.1653 4.30665 14.0733C3.63665 13.9833 3.24998 13.814 2.96798 13.532C2.68598 13.25 2.51665 12.8633 2.42665 12.1926C2.33465 11.508 2.33332 10.6046 2.33332 9.33329V7.99996Z" fill="currentColor"/>
</svg>
