<svg width="18" height="17" viewBox="0 0 18 17" fill="none" xmlns="http://www.w3.org/2000/svg">
<path d="M13.9714 10.1312L13.1143 12.0416M13.9714 10.1312H11.8323M13.9714 10.1312C14.5133 8.92492 14.7839 8.32142 14.616 7.77246C14.6003 7.72043 14.5816 7.66934 14.5601 7.61946C14.3348 7.09459 13.7511 6.84171 12.5831 6.33525L10.5573 5.45834C9.78872 5.12542 9.40339 4.95825 8.99893 4.95825C8.59447 4.95825 8.20914 5.12471 7.43989 5.45834L5.41477 6.33525C4.24673 6.84171 3.66306 7.09459 3.43781 7.61946C3.41597 7.66956 3.39705 7.72088 3.38114 7.77317C3.21397 8.32142 3.48456 8.92492 4.02573 10.1319M4.88352 12.0416L4.02643 10.1312H6.1656" stroke="currentColor" stroke-width="1.5" stroke-linecap="round" stroke-linejoin="round"/>
<path d="M13.2493 6.37496V5.66663C13.2493 4.33071 13.2493 3.66346 12.8343 3.24838C12.4192 2.83329 11.7519 2.83329 10.416 2.83329H7.58268C6.24677 2.83329 5.57952 2.83329 5.16443 3.24838C4.74935 3.66346 4.74935 4.33071 4.74935 5.66663V6.37496M8.99935 2.83329V1.41663M1.91602 15.0117C2.40122 15.7561 3.02881 15.7561 3.52606 15.0117C5.12477 12.5665 6.64768 16.7705 7.77606 15.04C9.49731 12.4447 10.7355 16.9447 12.0261 15.0117C13.7091 12.4369 14.7581 16.701 16.0827 15.2886" stroke="currentColor" stroke-width="1.5" stroke-linecap="round" stroke-linejoin="round"/>
</svg>
