<svg width="23" height="20" viewBox="0 0 23 20" fill="none" xmlns="http://www.w3.org/2000/svg">
<path d="M2.41727 1L5.28522 3.82578M20.6859 19L17.818 16.1742M17.818 16.1742C16.2499 17.2482 14.1782 18 11.5516 18C4.44712 18 1.40234 12.5 1.40234 10C1.40234 8.42428 2.61193 5.65676 5.28522 3.82578M17.818 16.1742L13.7045 12.1213M5.28522 3.82578L9.39857 7.87863M9.39857 7.87863C8.84755 8.42153 8.50673 9.17155 8.50673 10C8.50673 11.6569 9.86992 13 11.5515 13C12.3923 13 13.1535 12.6642 13.7045 12.1213M9.39857 7.87863L13.7045 12.1213M20.097 14C20.2222 13.8341 20.3398 13.6671 20.4499 13.5C21.3 12.2091 21.7009 10.9071 21.7009 10C21.7009 7.5 18.6561 2 11.5516 2C10.4382 2 9.42459 2.13507 8.50673 2.3725C8.33423 2.41712 8.16512 2.46536 7.99936 2.517" stroke="#1A1A1A" stroke-width="1.5" stroke-linecap="round"/>
</svg>
