<svg width="20" height="20" viewBox="0 0 20 20" fill="none" xmlns="http://www.w3.org/2000/svg">
<path d="M10.0006 19.2858C12.4633 19.2858 14.8251 18.3075 16.5666 16.5661C18.308 14.8247 19.2863 12.4628 19.2863 10.0001C19.2863 7.53735 18.308 5.17549 16.5666 3.43408C14.8251 1.69267 12.4633 0.714355 10.0006 0.714355C7.53783 0.714355 5.17598 1.69267 3.43457 3.43408C1.69316 5.17549 0.714844 7.53735 0.714844 10.0001C0.714844 12.4628 1.69316 14.8247 3.43457 16.5661C5.17598 18.3075 7.53783 19.2858 10.0006 19.2858Z" stroke="currentColor" stroke-linecap="round" stroke-linejoin="round"/>
<path d="M12.4313 7.45993C12.3005 7.08793 12.0573 6.76583 11.7353 6.53827C11.4132 6.31071 11.0284 6.18897 10.6341 6.18993H9.15983C8.74007 6.18924 8.3349 6.34387 8.02233 6.62405C7.70976 6.90423 7.5119 7.29014 7.46685 7.70748C7.4218 8.12481 7.53275 8.54406 7.77832 8.88449C8.02389 9.22492 8.38673 9.46245 8.79697 9.55136L11.0413 10.0428C11.5001 10.1435 11.9056 10.4101 12.1799 10.7914C12.4542 11.1727 12.578 11.642 12.5275 12.109C12.477 12.576 12.2558 13.0079 11.9064 13.3219C11.5569 13.6358 11.1039 13.8096 10.6341 13.8099H9.36554C8.97107 13.8108 8.5861 13.6888 8.26407 13.461C7.94204 13.2332 7.6989 12.9108 7.5684 12.5385M9.99983 6.18993V4.28564M9.99983 15.7142V13.8085" stroke="currentColor" stroke-linecap="round" stroke-linejoin="round"/>
</svg>
