<svg width="24" height="25" viewBox="0 0 24 25" fill="none" xmlns="http://www.w3.org/2000/svg">
<rect width="24" height="24" transform="translate(0 0.150024)" fill="white"/>
<path d="M18 22.0001V3.50012C18 3.1023 17.842 2.72077 17.5607 2.43946C17.2794 2.15816 16.8978 2.00012 16.5 2.00012H4.5C4.10218 2.00012 3.72064 2.15816 3.43934 2.43946C3.15804 2.72077 3 3.1023 3 3.50012V20.5001C3 20.8979 3.15804 21.2795 3.43934 21.5608C3.72064 21.8421 4.10218 22.0001 4.5 22.0001H18ZM18 22.0001H20.5C20.8978 22.0001 21.2794 21.8421 21.5607 21.5608C21.842 21.2795 22 20.8979 22 20.5001V12.0001C22 11.7349 21.8946 11.4806 21.7071 11.293C21.5196 11.1055 21.2652 11.0001 21 11.0001H19C18.7348 11.0001 18.4804 11.1055 18.2929 11.293C18.1054 11.4806 18 11.7349 18 12.0001V22.0001Z" stroke="#326BFE" stroke-width="2" stroke-linejoin="round"/>
<path d="M6 6.00012H10M6 9.50012H12" stroke="#326BFE" stroke-width="2" stroke-linecap="round" stroke-linejoin="round"/>
</svg>
