<svg width="25" height="24" viewBox="0 0 25 24" fill="none" xmlns="http://www.w3.org/2000/svg">
<path fill-rule="evenodd" clip-rule="evenodd" d="M11.7113 6.04469C11.9408 5.93693 12.2063 5.93693 12.4357 6.04469L21.5234 10.3129C21.911 10.4949 22.1032 10.9362 21.9726 11.344L19.7007 18.4353L18.0779 17.9155L18.6316 16.1875H16.6174V14.4836H19.1774L20.1215 11.537L12.0736 7.75709L4.02563 11.537L4.96966 14.4836H7.52973V16.1875H5.51556L6.06916 17.9155L4.44647 18.4353L2.17455 11.344C2.04392 10.9362 2.23618 10.4949 2.62371 10.3129L11.7113 6.04469Z" fill="#061949"/>
<path fill-rule="evenodd" clip-rule="evenodd" d="M4.40527 3.40788C4.40527 2.93735 4.78671 2.55591 5.25724 2.55591H18.8888C19.3593 2.55591 19.7408 2.93735 19.7408 3.40788V10.2236H18.0368V4.25985H6.10921V10.2236H4.40527V3.40788Z" fill="#061949"/>
<path fill-rule="evenodd" clip-rule="evenodd" d="M12.9256 0V3.40788H11.2217V0H12.9256Z" fill="#061949"/>
<path fill-rule="evenodd" clip-rule="evenodd" d="M22.5289 21.866C22.5447 21.8636 22.6391 21.8478 22.8116 21.664L24.0542 22.83C23.6956 23.2122 23.2725 23.4781 22.7792 23.5514C22.2911 23.6239 21.8567 23.4893 21.5079 23.3088C21.1663 23.132 20.8567 22.8851 20.5929 22.6553C20.4607 22.5401 20.2912 22.3843 20.134 22.2398C20.0196 22.1346 19.9117 22.0355 19.8293 21.9622C19.2993 21.4908 18.9784 21.3099 18.7464 21.2998C18.626 21.2945 18.2534 21.3311 17.6403 22.269L17.6358 22.276C17.3229 22.7444 16.9482 23.1157 16.4811 23.3104C15.9923 23.5142 15.5154 23.4781 15.1048 23.3396C14.7165 23.2085 14.3687 22.9805 14.0795 22.7649C13.8726 22.6105 13.6549 22.4302 13.4559 22.2654C13.3808 22.2031 13.3083 22.1432 13.2401 22.0875C12.663 21.6172 12.2895 21.3918 11.9897 21.3706C11.8233 21.3588 11.4328 21.3976 10.8231 22.3155C10.5332 22.7592 10.1667 23.1109 9.69502 23.2822C9.21455 23.4568 8.75179 23.3985 8.36588 23.2655C7.99323 23.1371 7.64753 22.9244 7.35203 22.7207C7.15796 22.587 6.94817 22.4299 6.75279 22.2837C6.65816 22.2128 6.56692 22.1445 6.48248 22.0826C5.88499 21.6446 5.47162 21.4164 5.13645 21.3962C4.9335 21.3839 4.55263 21.4372 4.00884 22.269L4.00428 22.276C3.53242 22.9825 2.85557 23.5504 1.99759 23.5504C1.13617 23.5504 0.463187 22.9787 0 22.2681L1.42741 21.3375C1.74263 21.8211 1.96196 21.8464 1.99759 21.8464C2.0366 21.8464 2.26072 21.8173 2.58512 21.3329C3.32269 20.2064 4.2076 19.6331 5.23897 19.6953C6.13928 19.7496 6.93021 20.298 7.48993 20.7084C7.60647 20.7939 7.71297 20.8736 7.81408 20.9495C7.99045 21.0816 8.15045 21.2016 8.31889 21.3177C8.57645 21.4951 8.77004 21.6026 8.92093 21.6545C9.05675 21.7013 9.10238 21.6847 9.11273 21.6808C9.12993 21.6746 9.23546 21.6307 9.39776 21.3817L9.40152 21.376C10.1712 20.216 11.0634 19.5968 12.1101 19.6709C13.0237 19.7356 13.7934 20.3404 14.3165 20.7666C14.4098 20.8426 14.4967 20.9146 14.5795 20.9832C14.7639 21.136 14.928 21.272 15.0983 21.399C15.341 21.5801 15.5176 21.6805 15.6497 21.725C15.7594 21.762 15.7987 21.7488 15.8255 21.7376C15.8738 21.7175 16.0131 21.6368 16.2166 21.3328C16.9526 20.2084 17.8016 19.5528 18.821 19.5975C19.7299 19.6374 20.4683 20.2501 20.9618 20.689C21.1095 20.8205 21.2239 20.9263 21.3315 21.0261C21.454 21.1394 21.5677 21.2447 21.7119 21.3704C21.9477 21.5755 22.1342 21.7143 22.2912 21.7956C22.4411 21.8731 22.5077 21.8691 22.5289 21.866Z" fill="#061949"/>
</svg>
