<svg width="25" height="25" viewBox="0 0 25 25" fill="none" xmlns="http://www.w3.org/2000/svg">
<path d="M12.0751 24.15C5.41687 24.15 0 18.7331 0 12.0747C0 5.41671 5.41687 0 12.0751 0C18.7333 0 24.1501 5.41671 24.1501 12.0747C24.1501 18.733 18.7333 24.15 12.0751 24.15ZM12.0751 1.67945C6.34288 1.67945 1.67945 6.34277 1.67945 12.0747C1.67945 17.807 6.34288 22.4706 12.0751 22.4706C17.8072 22.4706 22.4707 17.807 22.4707 12.0747C22.4707 6.34277 17.8072 1.67945 12.0751 1.67945Z" fill="#061949"/>
<path d="M16.1226 16.0924C15.9736 16.0924 15.8228 16.0528 15.6863 15.9696L11.6381 13.5023C11.3879 13.3499 11.2354 13.0782 11.2354 12.7853V6.82374C11.2354 6.36 11.6113 5.98401 12.0751 5.98401C12.5388 5.98401 12.9148 6.36 12.9148 6.82374V12.3137L16.5603 14.5354C16.9564 14.7768 17.0817 15.2935 16.8404 15.6895C16.6822 15.949 16.4058 16.0924 16.1226 16.0924Z" fill="#061949"/>
</svg>
