<svg width="22" height="22" viewBox="0 0 22 22" fill="none" xmlns="http://www.w3.org/2000/svg">
<path d="M15 20.5V18.2C15 17.0799 15 16.5198 15.218 16.092C15.4097 15.7157 15.7157 15.4097 16.092 15.218C16.5198 15 17.0799 15 18.2 15H20.5M6 6H14M6 10H12M6 14H8M14.1716 21H10.6C7.23969 21 5.55953 21 4.27606 20.346C3.14708 19.7708 2.2292 18.8529 1.65396 17.7239C1 16.4405 1 14.7603 1 11.4V10.6C1 7.23969 1 5.55953 1.65396 4.27606C2.2292 3.14708 3.14708 2.2292 4.27606 1.65396C5.55953 1 7.23969 1 10.6 1H11.4C14.7603 1 16.4405 1 17.7239 1.65396C18.8529 2.2292 19.7708 3.14708 20.346 4.27606C21 5.55953 21 7.23969 21 10.6V14.1716C21 14.5088 21 14.6774 20.9912 14.8399C20.9171 16.2049 20.3791 17.5036 19.4663 18.5212C19.3577 18.6423 19.2385 18.7615 19 19V19C18.7615 19.2385 18.6423 19.3577 18.5212 19.4663C17.5036 20.3791 16.2049 20.9171 14.8399 20.9912C14.6774 21 14.5088 21 14.1716 21Z" stroke="currentColor" stroke-width="0.5" stroke-linecap="round" stroke-linejoin="round"/>
</svg>
