<svg width="17" height="16" viewBox="0 0 17 16" fill="none" xmlns="http://www.w3.org/2000/svg">
<path d="M8.5 14C7.31331 14 6.15328 13.6481 5.16658 12.9888C4.17989 12.3295 3.41085 11.3925 2.95673 10.2961C2.5026 9.19975 2.38378 7.99335 2.61529 6.82946C2.8468 5.66558 3.41825 4.59648 4.25736 3.75736C5.09648 2.91825 6.16558 2.3468 7.32946 2.11529C8.49335 1.88378 9.69975 2.0026 10.7961 2.45673C11.8925 2.91085 12.8295 3.67989 13.4888 4.66658C14.1481 5.65328 14.5 6.81331 14.5 8C14.5 9.5913 13.8679 11.1174 12.7426 12.2426C11.6174 13.3679 10.0913 14 8.5 14ZM8.5 3C7.5111 3 6.5444 3.29325 5.72215 3.84265C4.89991 4.39206 4.25904 5.17296 3.8806 6.08659C3.50217 7.00022 3.40315 8.00555 3.59608 8.97545C3.789 9.94536 4.26521 10.8363 4.96447 11.5355C5.66373 12.2348 6.55465 12.711 7.52455 12.9039C8.49446 13.0969 9.49979 12.9978 10.4134 12.6194C11.3271 12.241 12.1079 11.6001 12.6574 10.7779C13.2068 9.95561 13.5 8.98891 13.5 8C13.5 6.67392 12.9732 5.40215 12.0355 4.46447C11.0979 3.52679 9.82609 3 8.5 3Z" fill="currentColor"/>
<path d="M10.5 8.49996H8.5C8.36793 8.49823 8.24175 8.445 8.14836 8.3516C8.05496 8.25821 8.00173 8.13203 8 7.99996V4.66663C8 4.53402 8.05268 4.40684 8.14645 4.31307C8.24022 4.2193 8.36739 4.16663 8.5 4.16663C8.63261 4.16663 8.75978 4.2193 8.85355 4.31307C8.94732 4.40684 9 4.53402 9 4.66663V7.49996H10.5C10.6326 7.49996 10.7598 7.55264 10.8536 7.64641C10.9473 7.74017 11 7.86735 11 7.99996C11 8.13257 10.9473 8.25974 10.8536 8.35351C10.7598 8.44728 10.6326 8.49996 10.5 8.49996Z" fill="currentColor"/>
</svg>
