<svg width="18" height="18" viewBox="0 0 18 18" fill="none" xmlns="http://www.w3.org/2000/svg">
<path d="M9 0.9375C10.1433 0.9375 10.7152 0.937737 11.2549 1.05859C11.8169 1.18449 12.3534 1.40644 12.8398 1.71484C13.3067 2.01096 13.7113 2.41541 14.5195 3.22363L14.7764 3.48047C15.5846 4.28869 15.989 4.69326 16.2852 5.16016C16.5936 5.64656 16.8155 6.18311 16.9414 6.74512C17.0623 7.28478 17.0625 7.8567 17.0625 9C17.0625 10.1433 17.0623 10.7152 16.9414 11.2549C16.8155 11.8169 16.5936 12.3534 16.2852 12.8398C15.989 13.3067 15.5846 13.7113 14.7764 14.5195L14.5195 14.7764C13.7113 15.5846 13.3067 15.989 12.8398 16.2852C12.3534 16.5936 11.8169 16.8155 11.2549 16.9414C10.7152 17.0623 10.1433 17.0625 9 17.0625C7.8567 17.0625 7.28478 17.0623 6.74512 16.9414C6.18311 16.8155 5.64656 16.5936 5.16016 16.2852C4.69326 15.989 4.28869 15.5846 3.48047 14.7764L3.22363 14.5195C2.41541 13.7113 2.01096 13.3067 1.71484 12.8398C1.40644 12.3534 1.18449 11.8169 1.05859 11.2549C0.937737 10.7152 0.9375 10.1433 0.9375 9C0.9375 7.8567 0.937737 7.28478 1.05859 6.74512C1.18449 6.18311 1.40644 5.64656 1.71484 5.16016C2.01096 4.69326 2.41541 4.28869 3.22363 3.48047L3.48047 3.22363C4.28869 2.41541 4.69326 2.01096 5.16016 1.71484C5.64656 1.40644 6.18311 1.18449 6.74512 1.05859C7.28478 0.937737 7.8567 0.9375 9 0.9375ZM11.7803 6.21973C11.4874 5.92683 11.0126 5.92683 10.7197 6.21973L9 7.93945L7.28027 6.21973C6.98738 5.92683 6.51262 5.92683 6.21973 6.21973C5.92683 6.51262 5.92683 6.98738 6.21973 7.28027L7.93945 9L6.21973 10.7197C5.92683 11.0126 5.92683 11.4874 6.21973 11.7803C6.51262 12.0732 6.98738 12.0732 7.28027 11.7803L9 10.0605L10.7197 11.7803L10.7764 11.832C11.0709 12.0723 11.5057 12.0549 11.7803 11.7803C12.0549 11.5057 12.0723 11.0709 11.832 10.7764L11.7803 10.7197L10.0605 9L11.7803 7.28027C12.0732 6.98738 12.0732 6.51262 11.7803 6.21973Z" fill="#E01507"/>
</svg>
