<svg width="16" height="17" viewBox="0 0 16 17" fill="none" xmlns="http://www.w3.org/2000/svg">
<path d="M4.7923 1.99574C6.64855 0.444129 9.35011 0.444129 11.2064 1.99574C11.9123 2.58605 12.5616 3.74515 13.8597 6.06312C15.1079 8.29208 15.7327 9.40711 15.8704 10.2994C16.232 12.6423 14.898 14.9176 12.6771 15.7467C11.8312 16.0624 10.5537 16.0621 7.99933 16.0621C5.4449 16.0621 4.16748 16.0624 3.3216 15.7467C1.10064 14.9175 -0.232438 12.6424 0.129214 10.2994C0.266976 9.40711 0.890764 8.29208 2.13898 6.06312C3.43701 3.74521 4.08634 2.58608 4.7923 1.99574ZM7.99933 10.2496C7.37804 10.2497 6.87434 10.7534 6.87433 11.3746C6.87433 11.9959 7.37804 12.4996 7.99933 12.4996C8.62065 12.4996 9.12433 11.996 9.12433 11.3746C9.12432 10.7533 8.62064 10.2496 7.99933 10.2496ZM7.99933 4.99964C7.58515 4.99967 7.24934 5.33546 7.24933 5.74964V8.74964C7.24933 9.16384 7.58514 9.49961 7.99933 9.49964C8.41354 9.49964 8.74933 9.16386 8.74933 8.74964V5.74964C8.74932 5.33544 8.41354 4.99964 7.99933 4.99964Z" fill="#FFA826"/>
</svg>
